<?xml version="1.0" encoding="utf-8"?>
<!-- Generator: Adobe Illustrator 15.0.0, SVG Export Plug-In  -->
<!DOCTYPE svg PUBLIC "-//W3C//DTD SVG 1.1//EN" "http://www.w3.org/Graphics/SVG/1.1/DTD/svg11.dtd" [
	<!ENTITY ns_flows "http://ns.adobe.com/Flows/1.0/">
]>
<svg version="1.1"
	 xmlns="http://www.w3.org/2000/svg" xmlns:xlink="http://www.w3.org/1999/xlink" xmlns:a="http://ns.adobe.com/AdobeSVGViewerExtensions/3.0/"
	 x="0px" y="0px" width="101px" height="109px" viewBox="-1.751 0.5 101 109"
	 overflow="visible" enable-background="new -1.751 0.5 101 109" xml:space="preserve">
<defs>
</defs>
<g>
	<path fill="#414042" d="M78.836,47.744c-2.75,0-5-2.25-5-5V5.5c0-2.75-2.25-5-5-5H28.443c-2.75,0-5,2.25-5,5v37.244
		c0,2.75-2.25,5-5,5H3.249c-2.75,0-3.577,1.743-1.838,3.873l18.871,23.112c1.739,2.13,4.585,5.616,6.324,7.746l18.872,23.112
		c1.739,2.13,4.585,2.13,6.324,0l18.871-23.112c1.739-2.13,4.585-5.616,6.324-7.746l18.871-23.112
		c1.739-2.13,0.912-3.873-1.838-3.873H78.836z"/>
	<path fill="none" stroke="#000000" stroke-miterlimit="10" d="M78.836,47.744c-2.75,0-5-2.25-5-5V5.5c0-2.75-2.25-5-5-5H28.443
		c-2.75,0-5,2.25-5,5v37.244c0,2.75-2.25,5-5,5H3.249c-2.75,0-3.577,1.743-1.838,3.873l18.871,23.112
		c1.739,2.13,4.585,5.616,6.324,7.746l18.872,23.112c1.739,2.13,4.585,2.13,6.324,0l18.871-23.112
		c1.739-2.13,4.585-5.616,6.324-7.746l18.871-23.112c1.739-2.13,0.912-3.873-1.838-3.873H78.836z"/>
</g>
</svg>
